<svg width="89" height="59" viewBox="0 0 89 59" fill="none" xmlns="http://www.w3.org/2000/svg">
<rect width="88.5826" height="23" rx="4" fill="#EB5757"/>
<path d="M11.6757 8.66216H15.03C15.2617 8.66216 15.3776 8.66216 15.4473 8.71096C15.5082 8.75357 15.5489 8.81939 15.5598 8.89293C15.5722 8.97715 15.5204 9.08077 15.4168 9.28798L14.7399 10.6418C14.7064 10.7089 14.6896 10.7424 14.6825 10.7777C14.6762 10.8089 14.6755 10.841 14.6803 10.8725C14.6858 10.908 14.7011 10.9423 14.7315 11.0108L15.4595 12.6487C15.5495 12.8513 15.5946 12.9527 15.5798 13.0345C15.5669 13.106 15.5258 13.1692 15.4657 13.2101C15.397 13.2568 15.2861 13.2568 15.0643 13.2568H10.9189C10.6162 13.2568 10.4648 13.2568 10.3492 13.1978C10.2475 13.146 10.1648 13.0633 10.113 12.9616C10.0541 12.846 10.0541 12.6946 10.0541 12.3919V11.0946M6 16.5L6 7.04054M6 11.0946H10.8108C11.1135 11.0946 11.2649 11.0946 11.3805 11.0357C11.4822 10.9839 11.5649 10.9012 11.6168 10.7995C11.6757 10.6838 11.6757 10.5325 11.6757 10.2297V7.36486C11.6757 7.06213 11.6757 6.91077 11.6168 6.79514C11.5649 6.69343 11.4822 6.61074 11.3805 6.55892C11.2649 6.5 11.1135 6.5 10.8108 6.5L6.86486 6.5C6.56213 6.5 6.41077 6.5 6.29514 6.55892C6.19343 6.61074 6.11074 6.69343 6.05892 6.79514C6 6.91077 6 7.06213 6 7.36486V11.0946Z" stroke="white" stroke-width="1.08108" stroke-linecap="round" stroke-linejoin="round"/>
<path d="M25.0759 9.78267C25.0418 9.43892 24.8955 9.17187 24.637 8.98153C24.3785 8.79119 24.0276 8.69602 23.5844 8.69602C23.2833 8.69602 23.029 8.73864 22.8216 8.82386C22.6143 8.90625 22.4552 9.02131 22.3444 9.16903C22.2364 9.31676 22.1824 9.48438 22.1824 9.67188C22.1768 9.82812 22.2094 9.96449 22.2805 10.081C22.3543 10.1974 22.4552 10.2983 22.583 10.3835C22.7108 10.4659 22.8586 10.5384 23.0262 10.6009C23.1938 10.6605 23.3728 10.7116 23.5631 10.7543L24.3472 10.9418C24.7279 11.027 25.0773 11.1406 25.3955 11.2827C25.7137 11.4247 25.9893 11.5994 26.2222 11.8068C26.4552 12.0142 26.6356 12.2585 26.7634 12.5398C26.8941 12.821 26.9608 13.1435 26.9637 13.5071C26.9608 14.0412 26.8245 14.5043 26.5546 14.8963C26.2876 15.2855 25.9012 15.5881 25.3955 15.804C24.8927 16.017 24.2861 16.1236 23.5759 16.1236C22.8714 16.1236 22.2577 16.0156 21.735 15.7997C21.2151 15.5838 20.8089 15.2642 20.5162 14.8409C20.2265 14.4148 20.0745 13.8878 20.0603 13.2599H21.8458C21.8657 13.5526 21.9495 13.7969 22.0972 13.9929C22.2478 14.1861 22.4481 14.3324 22.6981 14.4318C22.9509 14.5284 23.2364 14.5767 23.5546 14.5767C23.8671 14.5767 24.1384 14.5312 24.3685 14.4403C24.6015 14.3494 24.7819 14.223 24.9097 14.0611C25.0376 13.8991 25.1015 13.7131 25.1015 13.5028C25.1015 13.3068 25.0432 13.142 24.9268 13.0085C24.8131 12.875 24.6455 12.7614 24.4239 12.6676C24.2052 12.5739 23.9367 12.4886 23.6185 12.4119L22.6682 12.1733C21.9324 11.9943 21.3515 11.7145 20.9253 11.3338C20.4992 10.9531 20.2876 10.4403 20.2904 9.79545C20.2876 9.26705 20.4282 8.8054 20.7123 8.41051C20.9992 8.01562 21.3927 7.70739 21.8927 7.4858C22.3927 7.2642 22.9608 7.15341 23.5972 7.15341C24.2449 7.15341 24.8103 7.2642 25.2932 7.4858C25.779 7.70739 26.1569 8.01562 26.4268 8.41051C26.6966 8.8054 26.8358 9.26278 26.8444 9.78267H25.0759ZM30.0372 16.1236C29.6196 16.1236 29.2474 16.0511 28.9207 15.9062C28.594 15.7585 28.3355 15.5412 28.1452 15.2543C27.9577 14.9645 27.8639 14.6037 27.8639 14.1719C27.8639 13.8082 27.9307 13.5028 28.0642 13.2557C28.1977 13.0085 28.3795 12.8097 28.6096 12.6591C28.8398 12.5085 29.1011 12.3949 29.3937 12.3182C29.6892 12.2415 29.9988 12.1875 30.3227 12.1562C30.7034 12.1165 31.0102 12.0795 31.2432 12.0455C31.4761 12.0085 31.6452 11.9545 31.7503 11.8835C31.8554 11.8125 31.9079 11.7074 31.9079 11.5682V11.5426C31.9079 11.2727 31.8227 11.0639 31.6523 10.9162C31.4846 10.7685 31.246 10.6946 30.9363 10.6946C30.6096 10.6946 30.3497 10.767 30.1565 10.9119C29.9633 11.054 29.8355 11.233 29.773 11.4489L28.094 11.3125C28.1792 10.9148 28.3469 10.571 28.5969 10.2812C28.8469 9.98864 29.1693 9.7642 29.5642 9.60795C29.9619 9.44886 30.4221 9.36932 30.9449 9.36932C31.3085 9.36932 31.6565 9.41193 31.9889 9.49716C32.3241 9.58239 32.621 9.71449 32.8795 9.89347C33.1409 10.0724 33.3469 10.3026 33.4974 10.5838C33.648 10.8622 33.7233 11.196 33.7233 11.5852V16H32.0017V15.0923H31.9506C31.8454 15.2969 31.7048 15.4773 31.5287 15.6335C31.3525 15.7869 31.1409 15.9077 30.8937 15.9957C30.6466 16.081 30.3611 16.1236 30.0372 16.1236ZM30.5571 14.8707C30.8241 14.8707 31.0599 14.8182 31.2645 14.7131C31.469 14.6051 31.6295 14.4602 31.746 14.2784C31.8625 14.0966 31.9207 13.8906 31.9207 13.6605V12.9659C31.8639 13.0028 31.7858 13.0369 31.6863 13.0682C31.5898 13.0966 31.4804 13.1236 31.3582 13.1491C31.2361 13.1719 31.1139 13.1932 30.9917 13.2131C30.8696 13.2301 30.7588 13.2457 30.6594 13.2599C30.4463 13.2912 30.2602 13.3409 30.1011 13.4091C29.942 13.4773 29.8184 13.5696 29.7304 13.6861C29.6423 13.7997 29.5983 13.9418 29.5983 14.1122C29.5983 14.3594 29.6878 14.5483 29.8667 14.679C30.0486 14.8068 30.2787 14.8707 30.5571 14.8707ZM35.1657 16V7.27273H36.9811V10.554H37.0365C37.116 10.3778 37.2311 10.1989 37.3817 10.017C37.5351 9.83239 37.7339 9.67898 37.9782 9.55682C38.2254 9.43182 38.5322 9.36932 38.8987 9.36932C39.376 9.36932 39.8163 9.49432 40.2197 9.74432C40.6231 9.99148 40.9456 10.3651 41.1871 10.8651C41.4285 11.3622 41.5493 11.9858 41.5493 12.7358C41.5493 13.4659 41.4314 14.0824 41.1956 14.5852C40.9626 15.0852 40.6444 15.4645 40.241 15.723C39.8405 15.9787 39.3916 16.1065 38.8944 16.1065C38.5422 16.1065 38.2425 16.0483 37.9953 15.9318C37.751 15.8153 37.5507 15.669 37.3944 15.4929C37.2382 15.3139 37.1189 15.1335 37.0365 14.9517H36.9555V16H35.1657ZM36.9427 12.7273C36.9427 13.1165 36.9967 13.456 37.1047 13.7457C37.2126 14.0355 37.3689 14.2614 37.5734 14.4233C37.778 14.5824 38.0265 14.6619 38.3192 14.6619C38.6146 14.6619 38.8646 14.581 39.0692 14.419C39.2737 14.2543 39.4285 14.027 39.5336 13.7372C39.6416 13.4446 39.6956 13.108 39.6956 12.7273C39.6956 12.3494 39.643 12.017 39.5379 11.7301C39.4328 11.4432 39.278 11.2187 39.0734 11.0568C38.8689 10.8949 38.6175 10.8139 38.3192 10.8139C38.0237 10.8139 37.7737 10.892 37.5692 11.0483C37.3675 11.2045 37.2126 11.4261 37.1047 11.7131C36.9967 12 36.9427 12.3381 36.9427 12.7273ZM42.7947 16V7.27273H44.61V10.554H44.6654C44.7449 10.3778 44.86 10.1989 45.0106 10.017C45.164 9.83239 45.3628 9.67898 45.6072 9.55682C45.8543 9.43182 46.1611 9.36932 46.5276 9.36932C47.0049 9.36932 47.4452 9.49432 47.8486 9.74432C48.252 9.99148 48.5745 10.3651 48.816 10.8651C49.0574 11.3622 49.1782 11.9858 49.1782 12.7358C49.1782 13.4659 49.0603 14.0824 48.8245 14.5852C48.5915 15.0852 48.2733 15.4645 47.8699 15.723C47.4694 15.9787 47.0205 16.1065 46.5233 16.1065C46.1711 16.1065 45.8714 16.0483 45.6242 15.9318C45.3799 15.8153 45.1796 15.669 45.0233 15.4929C44.8671 15.3139 44.7478 15.1335 44.6654 14.9517H44.5844V16H42.7947ZM44.5716 12.7273C44.5716 13.1165 44.6256 13.456 44.7336 13.7457C44.8415 14.0355 44.9978 14.2614 45.2023 14.4233C45.4069 14.5824 45.6555 14.6619 45.9481 14.6619C46.2435 14.6619 46.4935 14.581 46.6981 14.419C46.9026 14.2543 47.0574 14.027 47.1626 13.7372C47.2705 13.4446 47.3245 13.108 47.3245 12.7273C47.3245 12.3494 47.2719 12.017 47.1668 11.7301C47.0617 11.4432 46.9069 11.2187 46.7023 11.0568C46.4978 10.8949 46.2464 10.8139 45.9481 10.8139C45.6526 10.8139 45.4026 10.892 45.1981 11.0483C44.9964 11.2045 44.8415 11.4261 44.7336 11.7131C44.6256 12 44.5716 12.3381 44.5716 12.7273ZM52.2559 16.1236C51.8383 16.1236 51.4662 16.0511 51.1395 15.9062C50.8128 15.7585 50.5542 15.5412 50.3639 15.2543C50.1764 14.9645 50.0827 14.6037 50.0827 14.1719C50.0827 13.8082 50.1494 13.5028 50.2829 13.2557C50.4165 13.0085 50.5983 12.8097 50.8284 12.6591C51.0585 12.5085 51.3199 12.3949 51.6125 12.3182C51.9079 12.2415 52.2176 12.1875 52.5415 12.1562C52.9221 12.1165 53.229 12.0795 53.4619 12.0455C53.6949 12.0085 53.8639 11.9545 53.969 11.8835C54.0741 11.8125 54.1267 11.7074 54.1267 11.5682V11.5426C54.1267 11.2727 54.0415 11.0639 53.871 10.9162C53.7034 10.7685 53.4648 10.6946 53.1551 10.6946C52.8284 10.6946 52.5684 10.767 52.3753 10.9119C52.1821 11.054 52.0542 11.233 51.9917 11.4489L50.3128 11.3125C50.398 10.9148 50.5656 10.571 50.8156 10.2812C51.0656 9.98864 51.3881 9.7642 51.7829 9.60795C52.1807 9.44886 52.6409 9.36932 53.1636 9.36932C53.5273 9.36932 53.8753 9.41193 54.2077 9.49716C54.5429 9.58239 54.8398 9.71449 55.0983 9.89347C55.3596 10.0724 55.5656 10.3026 55.7162 10.5838C55.8667 10.8622 55.942 11.196 55.942 11.5852V16H54.2204V15.0923H54.1693C54.0642 15.2969 53.9236 15.4773 53.7474 15.6335C53.5713 15.7869 53.3596 15.9077 53.1125 15.9957C52.8653 16.081 52.5798 16.1236 52.2559 16.1236ZM52.7758 14.8707C53.0429 14.8707 53.2787 14.8182 53.4832 14.7131C53.6878 14.6051 53.8483 14.4602 53.9648 14.2784C54.0812 14.0966 54.1395 13.8906 54.1395 13.6605V12.9659C54.0827 13.0028 54.0045 13.0369 53.9051 13.0682C53.8085 13.0966 53.6991 13.1236 53.577 13.1491C53.4548 13.1719 53.3327 13.1932 53.2105 13.2131C53.0883 13.2301 52.9775 13.2457 52.8781 13.2599C52.665 13.2912 52.479 13.3409 52.3199 13.4091C52.1608 13.4773 52.0372 13.5696 51.9491 13.6861C51.8611 13.7997 51.817 13.9418 51.817 14.1122C51.817 14.3594 51.9065 14.5483 52.0855 14.679C52.2673 14.8068 52.4974 14.8707 52.7758 14.8707ZM60.8319 9.45455V10.8182H56.8902V9.45455H60.8319ZM57.7851 7.88636H59.6004V13.9886C59.6004 14.1562 59.626 14.2869 59.6771 14.3807C59.7282 14.4716 59.7993 14.5355 59.8902 14.5724C59.9839 14.6094 60.0919 14.6278 60.214 14.6278C60.2993 14.6278 60.3845 14.6207 60.4697 14.6065C60.555 14.5895 60.6203 14.5767 60.6657 14.5682L60.9513 15.919C60.8604 15.9474 60.7325 15.9801 60.5677 16.017C60.403 16.0568 60.2027 16.081 59.9669 16.0895C59.5294 16.1065 59.1459 16.0483 58.8163 15.9148C58.4896 15.7812 58.2354 15.5739 58.0535 15.2926C57.8717 15.0114 57.7822 14.6562 57.7851 14.2273V7.88636ZM62.0145 16V9.45455H63.8298V16H62.0145ZM62.9264 8.6108C62.6565 8.6108 62.425 8.52131 62.2318 8.34233C62.0415 8.16051 61.9463 7.94318 61.9463 7.69034C61.9463 7.44034 62.0415 7.22585 62.2318 7.04688C62.425 6.86506 62.6565 6.77415 62.9264 6.77415C63.1963 6.77415 63.4264 6.86506 63.6167 7.04688C63.8099 7.22585 63.9065 7.44034 63.9065 7.69034C63.9065 7.94318 63.8099 8.16051 63.6167 8.34233C63.4264 8.52131 63.1963 8.6108 62.9264 8.6108ZM68.2414 16.1278C67.5709 16.1278 66.9942 15.9858 66.5113 15.7017C66.0312 15.4148 65.6618 15.017 65.4033 14.5085C65.1476 14 65.0198 13.4148 65.0198 12.7528C65.0198 12.0824 65.1491 11.4943 65.4076 10.9886C65.6689 10.4801 66.0397 10.0838 66.5198 9.79972C66.9999 9.51278 67.5709 9.36932 68.2329 9.36932C68.8039 9.36932 69.3039 9.47301 69.7329 9.6804C70.1618 9.88778 70.5013 10.179 70.7513 10.554C71.0013 10.929 71.1391 11.3693 71.1647 11.875H69.4516C69.4033 11.5483 69.2755 11.2855 69.0681 11.0866C68.8635 10.8849 68.5951 10.7841 68.2627 10.7841C67.9814 10.7841 67.7357 10.8608 67.5255 11.0142C67.3181 11.1648 67.1562 11.3849 67.0397 11.6747C66.9232 11.9645 66.865 12.3153 66.865 12.7273C66.865 13.1449 66.9218 13.5 67.0354 13.7926C67.1519 14.0852 67.3153 14.3082 67.5255 14.4616C67.7357 14.6151 67.9814 14.6918 68.2627 14.6918C68.4701 14.6918 68.6562 14.6491 68.8209 14.5639C68.9885 14.4787 69.1263 14.3551 69.2343 14.1932C69.3451 14.0284 69.4175 13.831 69.4516 13.6009H71.1647C71.1363 14.1009 70.9999 14.5412 70.7556 14.9219C70.5141 15.2997 70.1803 15.5952 69.7542 15.8082C69.328 16.0213 68.8238 16.1278 68.2414 16.1278ZM74.1934 16.1236C73.7758 16.1236 73.4037 16.0511 73.077 15.9062C72.7503 15.7585 72.4917 15.5412 72.3014 15.2543C72.1139 14.9645 72.0202 14.6037 72.0202 14.1719C72.0202 13.8082 72.0869 13.5028 72.2204 13.2557C72.354 13.0085 72.5358 12.8097 72.7659 12.6591C72.996 12.5085 73.2574 12.3949 73.55 12.3182C73.8454 12.2415 74.1551 12.1875 74.479 12.1562C74.8596 12.1165 75.1665 12.0795 75.3994 12.0455C75.6324 12.0085 75.8014 11.9545 75.9065 11.8835C76.0116 11.8125 76.0642 11.7074 76.0642 11.5682V11.5426C76.0642 11.2727 75.979 11.0639 75.8085 10.9162C75.6409 10.7685 75.4023 10.6946 75.0926 10.6946C74.7659 10.6946 74.5059 10.767 74.3128 10.9119C74.1196 11.054 73.9917 11.233 73.9292 11.4489L72.2503 11.3125C72.3355 10.9148 72.5031 10.571 72.7531 10.2812C73.0031 9.98864 73.3256 9.7642 73.7204 9.60795C74.1182 9.44886 74.5784 9.36932 75.1011 9.36932C75.4648 9.36932 75.8128 9.41193 76.1452 9.49716C76.4804 9.58239 76.7773 9.71449 77.0358 9.89347C77.2971 10.0724 77.5031 10.3026 77.6537 10.5838C77.8042 10.8622 77.8795 11.196 77.8795 11.5852V16H76.1579V15.0923H76.1068C76.0017 15.2969 75.8611 15.4773 75.6849 15.6335C75.5088 15.7869 75.2971 15.9077 75.05 15.9957C74.8028 16.081 74.5173 16.1236 74.1934 16.1236ZM74.7133 14.8707C74.9804 14.8707 75.2162 14.8182 75.4207 14.7131C75.6253 14.6051 75.7858 14.4602 75.9023 14.2784C76.0187 14.0966 76.077 13.8906 76.077 13.6605V12.9659C76.0202 13.0028 75.942 13.0369 75.8426 13.0682C75.746 13.0966 75.6366 13.1236 75.5145 13.1491C75.3923 13.1719 75.2702 13.1932 75.148 13.2131C75.0258 13.2301 74.915 13.2457 74.8156 13.2599C74.6025 13.2912 74.4165 13.3409 74.2574 13.4091C74.0983 13.4773 73.9747 13.5696 73.8866 13.6861C73.7986 13.7997 73.7545 13.9418 73.7545 14.1122C73.7545 14.3594 73.844 14.5483 74.023 14.679C74.2048 14.8068 74.4349 14.8707 74.7133 14.8707ZM81.1032 7.27273V16H79.2879V7.27273H81.1032Z" fill="white"/>
<rect width="3" height="39" rx="1.5" transform="matrix(-1 0 0 1 44 20)" fill="#EB5757"/>
</svg>
