<svg width="48" height="54" viewBox="0 0 48 54" fill="none" xmlns="http://www.w3.org/2000/svg">
<rect width="48" height="23" rx="4" fill="#2F80ED"/>
<path d="M6.42614 8.79403V7.27273H13.5938V8.79403H10.9219V16H9.09801V8.79403H6.42614ZM16.7482 16.1278C16.0863 16.1278 15.5138 15.9872 15.0309 15.706C14.5508 15.4219 14.18 15.027 13.9187 14.5213C13.6573 14.0128 13.5266 13.4233 13.5266 12.7528C13.5266 12.0767 13.6573 11.4858 13.9187 10.9801C14.18 10.4716 14.5508 10.0767 15.0309 9.79545C15.5138 9.51136 16.0863 9.36932 16.7482 9.36932C17.4102 9.36932 17.9812 9.51136 18.4613 9.79545C18.9442 10.0767 19.3164 10.4716 19.5778 10.9801C19.8391 11.4858 19.9698 12.0767 19.9698 12.7528C19.9698 13.4233 19.8391 14.0128 19.5778 14.5213C19.3164 15.027 18.9442 15.4219 18.4613 15.706C17.9812 15.9872 17.4102 16.1278 16.7482 16.1278ZM16.7567 14.7216C17.0579 14.7216 17.3093 14.6364 17.511 14.4659C17.7127 14.2926 17.8647 14.0568 17.967 13.7585C18.0721 13.4602 18.1246 13.1207 18.1246 12.7401C18.1246 12.3594 18.0721 12.0199 17.967 11.7216C17.8647 11.4233 17.7127 11.1875 17.511 11.0142C17.3093 10.8409 17.0579 10.7543 16.7567 10.7543C16.4528 10.7543 16.1971 10.8409 15.9897 11.0142C15.7852 11.1875 15.6303 11.4233 15.5252 11.7216C15.4229 12.0199 15.3718 12.3594 15.3718 12.7401C15.3718 13.1207 15.4229 13.4602 15.5252 13.7585C15.6303 14.0568 15.7852 14.2926 15.9897 14.4659C16.1971 14.6364 16.4528 14.7216 16.7567 14.7216ZM23.5621 16.1065C23.065 16.1065 22.6147 15.9787 22.2113 15.723C21.8107 15.4645 21.4925 15.0852 21.2567 14.5852C21.0238 14.0824 20.9073 13.4659 20.9073 12.7358C20.9073 11.9858 21.0281 11.3622 21.2695 10.8651C21.511 10.3651 21.832 9.99148 22.2326 9.74432C22.636 9.49432 23.0778 9.36932 23.5579 9.36932C23.9244 9.36932 24.2298 9.43182 24.4741 9.55682C24.7212 9.67898 24.9201 9.83239 25.0707 10.017C25.2241 10.1989 25.3406 10.3778 25.4201 10.554H25.4755V7.27273H27.2866V16H25.4968V14.9517H25.4201C25.3349 15.1335 25.2141 15.3139 25.0579 15.4929C24.9045 15.669 24.7042 15.8153 24.457 15.9318C24.2127 16.0483 23.9144 16.1065 23.5621 16.1065ZM24.1374 14.6619C24.43 14.6619 24.6772 14.5824 24.8789 14.4233C25.0835 14.2614 25.2397 14.0355 25.3477 13.7457C25.4585 13.456 25.5138 13.1165 25.5138 12.7273C25.5138 12.3381 25.4599 12 25.3519 11.7131C25.244 11.4261 25.0877 11.2045 24.8832 11.0483C24.6786 10.892 24.43 10.8139 24.1374 10.8139C23.8391 10.8139 23.5877 10.8949 23.3832 11.0568C23.1786 11.2187 23.0238 11.4432 22.9187 11.7301C22.8136 12.017 22.761 12.3494 22.761 12.7273C22.761 13.108 22.8136 13.4446 22.9187 13.7372C23.0266 14.027 23.1815 14.2543 23.3832 14.419C23.5877 14.581 23.8391 14.6619 24.1374 14.6619ZM30.6456 16.1236C30.228 16.1236 29.8558 16.0511 29.5291 15.9062C29.2024 15.7585 28.9439 15.5412 28.7536 15.2543C28.5661 14.9645 28.4723 14.6037 28.4723 14.1719C28.4723 13.8082 28.5391 13.5028 28.6726 13.2557C28.8061 13.0085 28.9879 12.8097 29.218 12.6591C29.4482 12.5085 29.7095 12.3949 30.0021 12.3182C30.2976 12.2415 30.6072 12.1875 30.9311 12.1562C31.3118 12.1165 31.6186 12.0795 31.8516 12.0455C32.0845 12.0085 32.2536 11.9545 32.3587 11.8835C32.4638 11.8125 32.5163 11.7074 32.5163 11.5682V11.5426C32.5163 11.2727 32.4311 11.0639 32.2607 10.9162C32.093 10.7685 31.8544 10.6946 31.5447 10.6946C31.218 10.6946 30.9581 10.767 30.7649 10.9119C30.5717 11.054 30.4439 11.233 30.3814 11.4489L28.7024 11.3125C28.7876 10.9148 28.9553 10.571 29.2053 10.2812C29.4553 9.98864 29.7777 9.7642 30.1726 9.60795C30.5703 9.44886 31.0305 9.36932 31.5533 9.36932C31.9169 9.36932 32.2649 9.41193 32.5973 9.49716C32.9325 9.58239 33.2294 9.71449 33.4879 9.89347C33.7493 10.0724 33.9553 10.3026 34.1058 10.5838C34.2564 10.8622 34.3317 11.196 34.3317 11.5852V16H32.6101V15.0923H32.5589C32.4538 15.2969 32.3132 15.4773 32.1371 15.6335C31.9609 15.7869 31.7493 15.9077 31.5021 15.9957C31.255 16.081 30.9695 16.1236 30.6456 16.1236ZM31.1655 14.8707C31.4325 14.8707 31.6683 14.8182 31.8729 14.7131C32.0774 14.6051 32.2379 14.4602 32.3544 14.2784C32.4709 14.0966 32.5291 13.8906 32.5291 13.6605V12.9659C32.4723 13.0028 32.3942 13.0369 32.2947 13.0682C32.1982 13.0966 32.0888 13.1236 31.9666 13.1491C31.8445 13.1719 31.7223 13.1932 31.6001 13.2131C31.478 13.2301 31.3672 13.2457 31.2678 13.2599C31.0547 13.2912 30.8686 13.3409 30.7095 13.4091C30.5504 13.4773 30.4268 13.5696 30.3388 13.6861C30.2507 13.7997 30.2067 13.9418 30.2067 14.1122C30.2067 14.3594 30.2962 14.5483 30.4751 14.679C30.657 14.8068 30.8871 14.8707 31.1655 14.8707ZM36.6264 18.4545C36.3963 18.4545 36.1804 18.4361 35.9787 18.3991C35.7798 18.3651 35.6151 18.321 35.4844 18.267L35.8935 16.9119C36.1065 16.9773 36.2983 17.0128 36.4688 17.0185C36.642 17.0241 36.7912 16.9844 36.9162 16.8991C37.044 16.8139 37.1477 16.669 37.2273 16.4645L37.3338 16.1875L34.9858 9.45455H36.8949L38.25 14.2614H38.3182L39.6861 9.45455H41.608L39.0639 16.7074C38.9418 17.0597 38.7756 17.3665 38.5653 17.6278C38.358 17.892 38.0952 18.0952 37.777 18.2372C37.4588 18.3821 37.0753 18.4545 36.6264 18.4545Z" fill="white"/>
<line x1="24" y1="23" x2="24" y2="47" stroke="#2F80ED" stroke-width="2"/>
<rect x="19.7071" y="48.9497" width="6" height="6" transform="rotate(-45 19.7071 48.9497)" fill="#2F80ED" stroke="#2F80ED"/>
</svg>
